{"glyphs":{":":{"x_min":0,"x_max":250,"ha":250,"o":"m 11 23 l 24 10 l 58 31 l 58 31 l 118 -12 l 139 -12 l 239 66 l 228 77 l 198 56 l 198 56 l 136 100 l 114 100 z m 11 297 l 24 284 l 58 305 l 58 305 l 118 262 l 139 262 l 239 340 l 228 351 l 198 330 l 198 330 l 136 374 l 114 374 z"},"$":{"x_min":0,"x_max":500,"ha":500,"o":"m 500 -125 l 500 -75 l 0 -75 l 0 -125 z"},"?":{"x_min":0,"x_max":389,"ha":389,"o":"m 179 159 q 163 181 163 209 q 164 241 197 264 q 229 288 269 311 q 310 334 341 368 q 372 402 373 453 q 371 514 323 552 q 274 589 224 590 q 162 589 120 558 q 77 527 50 481 l 116 422 l 116 422 q 130 471 165 519 q 183 542 205 556 q 226 570 252 570 q 279 570 305 548 q 330 526 331 491 q 330 450 300 423 q 286 409 269 397 q 251 384 231 371 q 192 348 163 317 q 132 286 131 239 q 131 217 143 194 q 153 169 164 150 z m 65 9 l 99 30 l 99 30 l 159 -13 l 180 -13 l 280 65 l 269 76 l 239 55 l 239 55 l 177 99 l 155 99 l 52 22 z"},"<":{"x_min":0,"x_max":600,"ha":600,"o":"m 481 -6 l 481 42 l 179 181 l 481 320 l 481 368 l 481 368 l 119 202 l 119 160 l 481 -6 z"},"'":{"x_min":0,"x_max":222,"ha":222,"o":"m 144 581 q 147 603 143 631 q 140 645 133 654 q 125 662 110 662 q 97 662 89 654 q 82 645 79 631 q 74 603 77 581 l 94 377 q 95 370 97 359 q 100 346 110 346 q 121 346 125 359 q 128 370 127 377 z"},"=":{"x_min":0,"x_max":502,"ha":502,"o":"m 88 586 q 96 552 97 510 l 97 69 l 24 31 l 38 17 q 47 24 58 30 q 67 35 78 35 q 110 33 147 -12 l 166 -12 l 255 56 l 244 68 l 218 51 l 218 51 l 173 81 l 173 477 q 173 513 183 552 q 192 591 216 619 l 205 634 q 183 615 163 592 q 144 569 125 546 l 125 546 l 102 595 z m 311 586 q 319 552 320 510 l 320 69 l 247 31 l 261 17 q 270 24 281 30 q 290 35 301 35 q 333 33 370 -12 l 389 -12 l 478 56 l 467 68 l 441 51 l 441 51 l 396 81 l 396 477 q 396 513 406 552 q 415 591 439 619 l 428 634 q 406 615 386 592 q 367 569 348 546 l 348 546 l 325 595 z"},"a":{"x_min":0,"x_max":444,"ha":444,"o":"m 176 42 q 149 50 125 68 q 100 86 99 117 q 99 144 114 160 q 128 176 148 186 l 175 200 l 211 164 l 223 177 l 120 279 q 176 283 225 310 l 225 310 l 269 276 l 269 101 z m 411 346 q 402 341 388 331 q 374 320 363 320 q 344 320 325 339 q 305 357 298 374 l 282 374 q 260 349 216 327 q 170 305 130 301 l 128 303 q 145 314 146 336 q 146 354 133 365 q 119 374 102 374 q 59 373 58 332 q 58 317 79 295 l 162 213 q 118 197 73 164 q 52 147 38 126 q 23 104 23 78 q 24 44 51 21 q 75 -3 104 -12 l 121 -12 l 269 79 l 269 79 q 269 50 275 36 q 281 22 292 13 l 320 -12 l 331 -12 l 422 54 l 412 66 l 388 50 l 388 50 l 345 86 l 345 280 l 420 332 z"},"L":{"x_min":0,"x_max":722,"ha":722,"o":"m 589 86 q 537 105 472 106 q 428 106 365 96 q 302 86 238 62 q 175 38 133 -2 q 89 -42 88 -102 q 88 -158 125 -187 q 159 -217 213 -218 q 228 -217 238 -214 q 247 -212 256 -212 l 257 -197 q 238 -199 217 -200 q 172 -200 140 -176 q 106 -152 106 -104 q 106 -65 132 -37 q 155 -10 192 8 q 271 42 336 42 q 432 41 494 19 q 556 -4 587 -22 l 604 -22 l 711 54 l 703 71 l 703 71 l 672 51 l 672 51 l 607 81 l 607 395 q 617 396 618 410 q 616 425 598 426 q 579 425 579 410 q 579 396 589 395 z m 306 552 q 272 542 236 516 q 219 503 208 482 q 196 461 196 431 l 196 370 l 157 370 q 138 370 118 354 q 96 338 95 300 q 95 277 100 255 l 121 255 q 121 282 135 292 q 149 301 173 301 l 196 301 l 196 137 q 194 104 156 80 l 158 60 l 158 60 q 216 87 248 116 q 280 144 280 184 l 280 491 q 280 510 289 520 q 297 530 309 534 z m 307 111 q 340 123 378 151 q 396 165 408 184 q 419 202 419 226 l 419 539 q 419 580 436 605 q 452 630 488 630 q 509 630 522 623 q 534 615 541 603 q 555 577 565 544 l 565 544 l 693 630 l 684 645 l 641 619 l 641 619 q 620 636 593 649 q 566 662 535 662 q 462 660 401 608 q 372 583 354 554 q 335 524 335 493 l 335 212 q 335 145 303 125 z m 374 662 q 351 644 329 635 q 306 625 277 625 q 256 625 243 632 q 228 637 215 644 q 202 652 186 657 q 169 662 141 662 q 91 662 53 631 q 13 600 12 545 q 12 519 32 501 q 51 482 76 477 l 85 495 q 62 498 46 512 q 30 526 30 547 q 31 590 78 590 q 107 589 137 577 q 167 564 214 563 q 266 563 306 586 q 346 609 385 652 z"},"3":{"x_min":0,"x_max":500,"ha":500,"o":"m 268 46 l 268 46 q 224 94 148 95 q 106 94 72 83 q 57 78 47 73 q 36 67 36 63 q 37 53 53 53 q 115 52 149 33 q 167 24 179 13 q 191 1 198 -12 l 216 -12 q 238 10 286 31 q 333 53 386 54 q 412 53 414 61 q 413 77 391 83 l 391 206 q 399 207 407 210 q 414 213 414 219 q 414 224 409 228 q 403 233 395 236 l 275 304 q 333 328 398 329 q 399 341 394 346 q 389 350 381 353 l 381 454 q 400 456 400 472 q 352 482 306 503 q 260 523 228 552 l 217 552 q 201 529 168 512 q 135 495 98 488 q 87 487 78 487 q 68 486 68 479 q 68 471 94 463 q 118 454 152 454 q 222 452 279 494 l 305 484 l 305 333 q 205 305 135 233 l 144 221 q 171 245 200 265 q 252 221 315 192 l 315 66 z"},";":{"x_min":0,"x_max":250,"ha":250,"o":"m 83 -153 q 100 -144 122 -129 q 144 -115 164 -96 q 185 -76 199 -51 q 213 -25 213 6 q 212 47 194 66 q 175 85 158 87 l 149 87 l 42 14 l 53 0 l 86 22 q 111 18 126 3 q 140 -13 141 -42 q 141 -71 122 -97 q 103 -123 74 -140 z m 11 297 l 24 284 l 58 305 l 58 305 l 118 262 l 139 262 l 239 340 l 228 351 l 198 330 l 198 330 l 136 374 l 114 374 z"},"J":{"x_min":0,"x_max":556,"ha":556,"o":"m 503 662 l 503 662 q 447 641 422 611 q 397 581 397 523 l 397 65 q 399 -115 212 -112 q 155 -111 105 -81 q 82 -66 68 -43 q 52 -20 52 8 q 51 27 62 27 q 73 26 84 14 q 93 1 116 0 q 139 0 155 16 q 169 31 169 57 q 169 83 155 99 q 139 114 116 114 q 80 113 58 89 q 34 64 34 28 q 35 -56 95 -93 q 152 -130 230 -130 q 332 -130 406 -86 q 479 -41 481 64 l 481 584 q 480 635 509 646 z m 208 -18 l 208 -18 q 254 -3 287 20 q 304 32 313 47 q 322 61 322 80 l 322 487 q 322 519 335 535 q 346 550 361 558 l 354 567 q 317 561 279 535 q 262 522 251 501 q 238 480 238 448 l 239 337 l 197 337 q 159 337 144 308 q 130 278 130 220 l 148 220 q 155 252 170 261 q 184 269 218 269 l 238 269 l 238 45 q 238 28 230 16 q 222 4 201 -2 z m 378 661 q 360 651 337 643 q 314 634 292 634 q 263 635 226 648 q 191 661 154 662 q 98 662 55 628 q 34 612 22 589 q 8 566 8 537 q 9 492 49 478 q 67 471 87 468 q 107 464 125 464 l 125 482 q 92 481 61 489 q 27 498 26 537 q 26 561 40 578 q 52 594 75 594 q 109 593 143 579 q 178 563 233 562 q 282 563 319 591 q 355 616 387 649 z"},"V":{"x_min":0,"x_max":722,"ha":722,"o":"m 367 540 l 483 601 l 483 601 l 559 552 l 559 440 q 535 431 511 427 q 487 423 461 423 q 441 423 414 430 q 386 435 367 444 z m 27 511 q 45 582 124 584 q 158 584 178 564 q 198 543 198 506 l 198 373 l 151 373 q 122 373 101 354 q 78 334 78 289 q 78 262 85 238 l 110 238 q 110 266 124 283 q 136 300 163 301 l 198 301 l 198 102 q 144 88 107 48 q 68 8 67 -49 q 68 -103 100 -136 q 131 -168 173 -183 l 183 -170 q 142 -155 114 -123 q 85 -91 85 -46 q 86 3 118 25 q 149 46 194 46 q 257 44 300 18 q 321 7 338 -4 q 355 -15 368 -22 l 398 -22 q 412 -11 437 6 q 463 23 497 38 q 568 72 678 74 l 678 92 l 643 112 l 643 542 l 708 587 l 699 602 q 694 599 686 598 q 678 596 673 596 q 658 596 645 608 q 630 618 617 630 q 604 643 593 652 q 581 662 572 662 q 555 662 531 648 l 367 559 l 367 559 l 367 662 l 349 662 l 349 550 l 282 515 l 282 515 l 282 550 q 282 579 256 619 q 242 638 218 650 q 193 662 157 662 q 91 660 55 614 q 37 593 27 568 q 15 543 9 520 z m 349 528 l 349 93 q 314 100 282 109 l 282 493 l 349 528 z m 367 207 q 406 227 450 227 q 479 227 506 223 q 533 217 559 205 l 559 79 q 506 62 457 38 l 457 38 q 415 67 367 88 z m 367 421 q 417 405 468 405 q 514 405 559 420 l 559 227 q 514 244 468 245 q 456 245 444 245 q 430 245 418 243 q 393 239 367 229 z"},"\"":{"x_min":0,"x_max":333,"ha":333,"o":"m 272 581 q 275 603 271 631 q 268 645 261 654 q 253 662 238 662 q 225 662 217 654 q 210 645 207 631 q 202 603 205 581 l 222 377 q 223 370 225 359 q 228 346 238 346 q 249 346 253 359 q 256 370 255 377 z m 128 581 q 131 603 128 631 q 125 645 118 654 q 110 662 95 662 q 80 662 73 654 q 66 645 63 631 q 58 603 61 581 l 78 377 q 79 370 81 359 q 84 346 95 346 q 107 346 109 359 q 112 370 111 377 z"},"7":{"x_min":0,"x_max":500,"ha":500,"o":"m 440 552 q 405 497 342 496 q 305 496 255 513 q 205 529 167 552 l 152 552 l 69 420 l 84 414 l 123 473 l 123 473 q 137 467 154 462 q 171 456 187 451 q 221 440 251 440 q 344 439 415 497 l 417 495 q 393 464 347 412 q 300 360 249 299 q 198 238 163 180 q 126 122 125 80 q 125 54 144 29 q 161 3 180 -12 l 198 -12 l 313 69 l 302 86 l 302 86 l 250 50 q 235 60 228 77 q 221 94 221 111 q 221 143 252 198 q 281 253 321 319 q 363 385 401 447 q 438 509 456 552 z"},"S":{"x_min":0,"x_max":833,"ha":833,"o":"m 396 122 q 361 129 325 130 q 210 129 100 65 q 48 35 15 -8 q -19 -51 -20 -104 q -18 -175 57 -175 q 104 -174 147 -152 q 191 -130 230 -96 q 309 -24 361 47 l 361 47 q 450 20 514 -24 l 544 -24 q 558 -9 597 17 q 635 41 679 74 q 724 107 756 148 q 788 187 789 231 q 790 296 757 336 q 723 374 631 399 l 609 405 q 646 451 689 490 q 733 530 785 556 l 776 569 q 718 545 672 502 q 626 458 585 410 l 585 410 l 453 439 q 385 454 327 482 q 299 496 282 512 q 264 529 264 548 q 265 591 302 608 q 319 617 339 621 q 359 624 378 624 q 429 623 470 594 q 511 563 539 515 l 539 515 l 702 628 l 690 642 l 624 598 l 624 598 q 536 662 426 662 q 362 662 293 626 q 261 608 241 581 q 218 554 218 518 q 217 462 263 425 q 309 387 430 360 l 535 337 l 506 295 l 506 295 l 361 327 q 279 345 231 373 q 181 400 181 437 q 181 451 186 465 l 171 470 q 159 456 151 436 q 143 416 143 397 q 144 337 198 303 q 250 269 320 253 l 462 220 z m 342 53 q 294 -14 217 -82 q 179 -114 138 -135 q 96 -156 52 -157 q 31 -157 15 -145 q -1 -133 -2 -110 q -1 -69 24 -36 q 49 -3 87 20 q 168 67 242 68 q 293 67 342 53 z m 552 332 l 598 320 q 655 308 698 282 q 719 269 731 250 q 743 229 743 201 q 743 175 727 151 q 712 127 687 106 q 664 85 638 68 q 612 50 592 36 l 592 36 q 552 65 508 88 q 465 110 415 118 l 481 216 l 534 202 q 578 192 612 178 q 629 172 638 164 q 647 155 647 145 q 647 137 642 128 q 636 119 629 113 l 641 104 q 661 118 677 137 q 693 157 693 182 q 692 226 658 247 q 642 257 619 266 q 595 274 568 281 l 526 293 z"},"}":{"x_min":0,"x_max":333,"ha":333,"o":"m 207 523 q 207 568 199 596 q 190 624 173 638 q 156 653 133 658 q 109 662 80 662 l 80 650 q 131 630 131 528 l 131 361 q 130 309 148 278 q 166 247 227 234 l 227 232 q 166 220 148 189 q 130 158 131 105 l 131 -62 q 131 -113 119 -143 q 107 -172 80 -184 l 80 -196 q 109 -196 133 -190 q 156 -186 173 -171 q 190 -156 199 -128 q 207 -100 207 -57 l 207 120 q 206 168 221 194 q 229 208 242 218 q 255 227 276 233 q 255 241 242 251 q 229 260 221 273 q 206 299 207 346 z"},"Z":{"x_min":0,"x_max":667,"ha":667,"o":"m 30 -22 q 98 -2 167 17 q 236 37 307 38 q 372 38 430 23 q 489 8 523 -22 l 537 -22 l 633 91 l 620 104 l 590 72 l 590 72 q 509 109 419 110 q 330 109 253 82 q 176 54 97 12 l 97 25 q 256 112 346 266 l 363 294 l 517 294 l 587 404 l 573 417 l 539 366 l 400 366 l 417 400 q 487 555 631 644 l 625 662 l 625 662 q 496 601 351 599 q 232 601 156 662 l 156 662 l 63 547 l 78 538 l 109 572 l 109 572 q 177 537 253 537 q 334 537 401 560 q 468 582 540 617 l 547 606 q 478 568 417 517 q 356 465 314 398 l 295 366 l 124 366 l 60 251 l 80 251 l 106 294 l 255 294 l 221 228 q 150 85 30 -8 z"},"x":{"x_min":0,"x_max":444,"ha":444,"o":"m 157 82 q 136 101 109 102 q 76 101 54 81 q 32 61 17 31 l 28 23 q 35 28 44 29 q 52 30 56 30 q 92 31 115 0 l 132 0 l 207 140 l 207 140 q 233 87 260 47 q 286 6 313 -12 l 326 -12 l 411 58 l 399 71 q 383 51 360 50 q 352 50 338 68 q 325 83 308 109 q 273 164 247 222 l 281 288 q 300 265 338 264 q 366 265 384 288 q 402 310 407 337 l 395 344 q 384 336 368 336 q 361 336 353 343 q 344 348 337 356 q 330 364 324 369 q 318 374 313 374 l 306 374 l 237 242 l 237 242 q 226 270 198 320 q 185 343 170 359 q 155 373 138 374 q 119 373 92 351 q 65 330 46 313 l 57 298 q 68 312 87 312 q 104 312 120 296 q 137 279 152 254 q 183 201 198 164 z"},")":{"x_min":0,"x_max":333,"ha":333,"o":"m 39 -196 l 39 -196 q 159 -126 219 -11 q 279 102 279 233 q 279 364 219 479 q 159 592 39 662 l 39 662 l 39 634 q 139 564 172 461 q 202 358 201 233 q 202 108 172 6 q 139 -97 39 -168 z"},"&":{"x_min":0,"x_max":778,"ha":778,"o":"m 737 100 l 737 100 q 685 60 623 60 q 568 60 536 90 q 503 119 478 166 l 578 299 l 578 299 q 595 284 614 276 q 632 267 654 267 q 688 268 712 291 q 735 313 747 341 l 734 353 q 728 350 720 345 q 711 339 700 339 q 687 339 665 359 q 642 376 623 398 l 623 398 q 550 287 468 181 l 468 181 q 417 274 359 362 q 404 395 443 438 q 483 480 484 538 q 483 590 453 620 q 423 649 392 662 l 376 662 l 118 454 l 118 451 q 165 432 208 403 q 251 373 278 330 q 240 315 198 296 q 155 275 117 248 q 79 221 55 185 q 29 148 29 98 q 29 70 43 47 q 55 24 76 9 q 121 -21 176 -22 q 248 -21 309 12 q 369 45 418 94 l 418 94 q 453 43 491 12 q 529 -21 584 -22 q 643 -21 685 11 q 727 41 747 84 z m 288 318 q 349 215 410 110 q 375 77 330 48 q 283 17 232 16 q 188 16 158 43 q 126 68 125 113 q 125 155 139 186 q 153 216 176 238 q 199 262 228 281 q 257 299 288 318 z m 317 590 q 355 583 383 557 q 411 531 412 491 q 411 460 394 430 q 376 399 351 380 l 351 380 q 323 422 286 454 q 247 485 196 494 z"},"_":{"x_min":0,"x_max":500,"ha":500,"o":"m 500 -125 l 500 -75 l 0 -75 l 0 -125 z"},"v":{"x_min":0,"x_max":444,"ha":444,"o":"m 372 294 l 426 335 l 411 352 q 397 332 381 332 q 371 332 348 348 q 325 361 310 374 l 286 374 l 143 302 l 143 302 q 120 336 111 357 q 103 378 103 401 q 104 467 151 506 q 195 544 250 557 l 249 576 l 249 576 q 175 561 103 504 q 70 477 48 442 q 25 406 25 365 q 25 338 38 316 q 49 294 69 276 l 69 88 l 6 45 l 18 32 q 35 45 53 45 q 77 44 101 26 q 124 7 144 -12 l 163 -12 q 216 52 392 58 l 392 74 l 372 83 z m 145 281 l 224 320 l 224 320 l 296 286 l 296 67 q 260 62 226 49 l 145 94 z"},"O":{"x_min":0,"x_max":778,"ha":778,"o":"m 296 648 l 296 648 q 192 602 114 512 q 35 421 33 302 q 35 154 144 68 q 248 -21 392 -22 q 549 -20 644 85 q 739 187 740 342 q 741 409 727 458 q 712 507 685 543 q 658 579 623 608 q 587 636 546 662 l 530 662 l 446 618 l 446 618 l 446 662 l 428 662 l 428 610 l 213 503 l 219 487 l 219 487 l 285 519 l 285 519 l 285 148 q 286 97 250 72 l 269 59 q 307 69 337 96 q 368 122 369 164 l 369 560 l 428 589 l 428 589 l 428 -4 q 136 -3 139 288 q 137 396 167 488 q 198 581 302 631 z m 446 194 q 490 212 536 212 q 593 212 637 184 q 623 115 572 63 q 520 10 446 -4 z m 446 400 q 500 380 555 381 q 606 382 646 403 q 657 360 658 315 q 657 258 643 203 l 643 203 q 596 229 536 230 q 490 230 446 214 z m 447 597 l 460 603 q 514 588 564 539 q 614 490 642 419 q 599 400 548 399 q 496 399 446 419 z"},"(":{"x_min":0,"x_max":333,"ha":333,"o":"m 294 662 l 294 662 q 175 592 115 479 q 54 364 54 233 q 54 102 115 -11 q 175 -126 294 -196 l 294 -196 l 294 -168 q 195 -97 163 6 q 131 108 132 233 q 131 358 163 461 q 195 564 294 634 z"},"C":{"x_min":0,"x_max":667,"ha":667,"o":"m 279 640 q 171 598 104 504 q 36 409 35 291 q 36 143 129 62 q 220 -21 367 -22 q 542 -21 646 124 l 635 135 q 582 82 508 55 l 508 55 l 508 558 q 550 568 582 592 q 613 615 626 644 l 621 654 q 583 630 534 630 q 506 630 486 643 q 465 655 454 662 l 443 662 l 173 456 l 173 435 l 173 435 l 273 507 l 273 507 l 273 176 q 274 144 252 120 l 256 106 q 354 128 357 228 l 357 574 l 388 595 l 388 595 q 432 558 490 558 l 490 49 q 472 45 453 43 q 434 40 408 40 q 264 41 192 132 q 119 221 119 357 q 121 541 282 628 z"},"W":{"x_min":0,"x_max":944,"ha":944,"o":"m 487 406 q 456 398 424 398 q 411 398 397 403 q 383 406 371 408 l 371 553 l 424 590 l 424 590 l 467 566 q 479 560 483 550 q 487 538 487 516 z m 637 535 l 637 535 l 637 57 q 621 66 604 74 q 586 80 571 80 l 571 493 z m 771 76 q 745 74 715 65 q 684 56 655 42 l 655 42 l 655 211 q 667 215 681 218 q 695 221 708 221 q 740 221 771 213 z m 655 387 q 679 379 708 378 q 740 378 771 385 l 771 234 q 740 242 708 242 q 695 242 681 239 q 667 236 655 232 z m 655 549 l 713 587 l 713 587 l 771 551 l 771 404 q 740 396 708 396 q 695 396 681 401 q 667 404 655 406 z m 203 86 q 134 80 80 37 q 23 -5 22 -79 q 23 -133 55 -165 q 86 -198 134 -204 l 143 -190 q 104 -183 74 -157 q 59 -143 50 -127 q 40 -112 40 -92 q 40 -63 53 -42 q 64 -22 84 -10 q 125 14 177 14 q 211 14 234 9 q 256 4 272 -4 q 288 -10 300 -15 q 312 -21 324 -22 q 338 -21 348 -13 q 358 -5 368 5 q 378 16 393 24 q 408 31 430 31 q 471 29 507 5 q 525 -5 542 -13 q 557 -21 570 -22 q 583 -21 604 -9 q 625 2 653 18 q 668 26 686 33 q 703 40 722 46 q 760 57 809 58 q 853 58 884 44 l 884 60 l 855 93 l 855 553 l 933 603 l 920 618 l 889 598 l 889 598 l 796 662 l 784 662 l 655 572 l 655 572 l 655 662 l 637 662 l 637 559 l 571 514 l 571 514 l 571 549 q 571 584 567 600 q 562 615 547 626 l 506 662 l 489 662 l 371 576 l 371 576 l 371 662 l 353 662 l 353 566 l 287 522 l 287 522 q 287 579 255 620 q 223 661 163 662 q 103 661 63 618 q 22 576 21 515 l 39 515 q 40 547 69 563 q 96 580 128 580 q 162 580 183 567 q 203 552 203 522 l 203 373 l 156 373 q 127 373 106 354 q 83 334 83 289 q 83 262 90 238 l 110 238 q 110 267 126 284 q 141 301 168 301 l 203 301 z m 353 542 l 353 74 q 318 83 287 88 l 287 495 l 353 542 z m 371 213 q 383 216 397 221 q 411 224 424 224 q 456 224 487 215 l 487 81 q 440 68 406 45 q 387 60 371 69 z m 371 389 q 395 381 424 380 q 456 380 487 387 l 487 234 q 456 242 424 242 q 411 242 397 239 q 383 236 371 232 z"},"A":{"x_min":0,"x_max":833,"ha":833,"o":"m 596 201 q 614 152 639 84 q 651 52 666 24 q 681 -5 697 -22 l 716 -22 q 727 -13 740 -2 l 810 49 l 800 61 l 772 45 q 764 47 750 64 q 736 80 725 102 l 545 540 q 520 597 508 662 l 495 662 l 479 631 l 479 631 q 442 661 394 662 q 341 661 300 628 q 259 593 238 545 l 251 538 q 276 561 299 573 q 323 584 355 584 q 401 584 438 558 l 399 476 q 370 492 337 492 q 289 491 260 463 q 245 449 236 431 q 226 412 220 389 l 235 383 q 258 423 302 424 q 342 423 362 391 l 224 86 q 160 83 95 37 q 64 14 44 -16 q 23 -48 23 -87 q 23 -127 43 -153 q 62 -178 92 -193 q 156 -219 225 -218 q 266 -217 306 -211 l 300 -191 q 264 -199 226 -200 q 197 -200 166 -196 q 134 -192 106 -180 q 79 -168 60 -145 q 41 -123 41 -87 q 41 -60 55 -39 q 67 -18 87 -5 q 130 22 180 22 q 232 21 268 7 q 303 -7 320 -22 l 343 -22 l 478 71 l 466 82 l 409 46 l 409 46 q 382 68 339 78 q 296 86 247 86 l 300 201 z m 451 544 l 564 273 l 330 273 l 451 544 z"},"f":{"x_min":0,"x_max":333,"ha":333,"o":"m 67 374 l 42 316 l 53 311 q 59 318 68 321 q 76 322 85 322 l 120 322 l 120 79 l 41 25 l 52 14 q 60 21 76 29 q 90 36 100 36 q 115 35 137 19 q 159 3 175 -12 l 191 -12 l 294 63 l 284 75 l 248 51 l 248 51 l 196 88 l 196 322 l 267 322 l 294 382 l 281 390 q 271 374 252 374 l 196 374 l 196 556 l 200 558 q 212 543 228 537 q 244 529 262 529 q 288 529 305 548 q 322 567 326 597 l 316 602 q 309 592 289 591 q 278 591 267 603 q 255 614 247 627 l 233 627 q 210 598 177 580 q 143 561 109 549 q 119 491 120 433 l 120 374 z"},"Q":{"x_min":0,"x_max":778,"ha":778,"o":"m 446 194 q 490 212 536 212 q 593 212 637 184 q 610 70 505 15 l 505 15 q 481 49 446 67 z m 369 560 l 428 589 l 428 589 l 428 73 q 417 76 403 76 q 379 76 358 67 q 337 56 319 39 l 326 25 q 348 37 362 38 q 376 38 388 25 q 399 12 406 -2 q 136 10 139 288 q 137 396 167 488 q 198 581 302 631 l 296 648 l 296 648 q 192 602 114 512 q 35 421 33 302 q 35 154 144 68 q 248 -21 392 -22 q 404 -22 417 -21 q 438 -59 470 -96 q 487 -113 505 -124 q 523 -135 544 -136 q 580 -135 608 -123 q 635 -112 660 -96 l 648 -79 q 629 -88 609 -88 q 583 -87 561 -59 q 539 -33 517 0 q 735 89 740 342 q 741 409 727 458 q 712 507 685 543 q 658 579 623 608 q 587 636 546 662 l 530 662 l 446 618 l 446 618 l 446 662 l 428 662 l 428 610 l 213 503 l 219 487 l 219 487 l 285 519 l 285 519 l 285 148 q 286 97 250 72 l 269 59 q 307 69 337 96 q 368 122 369 164 z m 446 400 q 500 380 555 381 q 606 382 646 403 q 657 360 658 315 q 657 258 643 203 l 643 203 q 596 229 536 230 q 490 230 446 214 z m 447 597 l 460 603 q 514 588 564 539 q 614 490 642 419 q 599 400 548 399 q 496 399 446 419 z"},"w":{"x_min":0,"x_max":667,"ha":667,"o":"m 633 344 q 625 336 613 329 q 600 320 592 320 q 585 323 566 340 q 547 356 529 374 l 512 374 l 369 296 l 369 296 l 369 312 q 368 327 353 344 q 337 360 319 374 l 305 374 l 155 296 l 155 296 q 117 339 117 397 q 118 461 168 500 q 215 538 272 549 l 272 567 q 199 558 124 502 q 89 475 65 440 q 41 406 41 365 q 41 336 51 314 q 62 292 81 273 l 81 83 l 21 35 l 34 24 q 42 31 53 39 q 64 46 73 47 q 105 45 124 18 q 134 7 143 -2 q 151 -11 158 -12 q 170 -11 189 -1 q 208 9 220 16 l 301 58 l 301 58 l 362 -12 l 378 -12 q 391 5 442 27 q 492 48 580 51 q 590 51 598 54 q 606 57 606 62 q 606 70 598 74 q 590 79 581 79 l 581 285 l 646 329 z m 233 44 l 233 44 l 157 100 l 157 278 l 242 317 l 242 317 l 293 278 l 293 76 z m 505 63 l 442 45 l 442 45 q 402 70 386 89 q 369 107 369 126 l 369 275 l 450 318 l 450 318 l 505 281 z"},"-":{"x_min":0,"x_max":333,"ha":333,"o":"m 74 150 l 230 150 l 293 225 l 279 235 l 259 212 l 102 212 l 37 132 l 50 124 z"},"E":{"x_min":0,"x_max":722,"ha":722,"o":"m 355 117 q 270 117 178 69 q 136 45 108 9 q 79 -27 79 -74 q 80 -147 138 -182 q 194 -218 262 -218 q 335 -218 411 -195 l 397 -179 q 331 -200 258 -200 q 201 -200 151 -169 q 128 -154 113 -131 q 97 -108 97 -77 q 97 -41 116 -15 q 134 10 163 25 q 192 40 226 47 q 258 53 287 53 q 397 51 461 18 q 493 4 511 -7 q 528 -18 531 -22 l 557 -22 l 671 61 l 659 75 l 623 50 l 623 50 q 581 78 535 95 l 535 306 l 656 385 l 642 402 l 642 402 l 600 373 l 600 373 q 558 425 492 425 q 459 425 430 411 q 400 397 373 377 l 373 377 l 373 498 q 373 528 383 548 q 391 568 404 578 q 432 598 459 598 q 505 598 531 583 q 556 566 587 536 l 587 536 l 707 624 l 696 637 l 663 616 l 663 616 q 632 634 603 648 q 572 661 535 662 q 463 661 411 618 q 359 574 355 498 z m 315 542 q 281 528 245 505 q 228 493 217 478 q 205 462 205 441 l 206 370 l 164 370 q 126 369 111 337 q 97 304 97 253 l 115 253 q 122 278 137 286 q 151 292 185 292 l 205 292 l 205 167 q 204 149 196 139 q 186 127 175 123 l 184 104 l 184 104 q 230 122 259 148 q 288 174 289 214 l 289 470 q 289 496 302 511 q 312 527 322 530 z m 373 355 q 394 370 418 371 q 451 371 483 350 q 514 327 517 286 l 517 102 q 444 117 373 117 z m 374 661 q 343 633 303 632 q 282 633 239 646 q 196 661 154 662 q 108 662 62 631 q 40 616 26 596 q 11 575 11 549 q 11 520 23 501 q 35 483 57 464 l 67 477 q 52 489 41 505 q 29 522 29 541 q 31 586 76 588 q 106 587 141 574 q 177 561 212 560 q 325 558 384 654 z"},"s":{"x_min":0,"x_max":278,"ha":278,"o":"m 97 -136 l 18 -190 l 29 -201 q 37 -194 53 -186 q 67 -179 77 -179 q 92 -179 114 -196 q 136 -212 152 -227 l 168 -227 l 271 -152 l 261 -140 l 225 -164 l 225 -164 l 173 -127 l 173 556 l 177 558 q 189 543 205 537 q 221 529 239 529 q 265 529 282 548 q 299 567 303 597 l 293 602 q 286 592 266 591 q 255 591 244 603 q 232 614 224 627 l 210 627 q 187 598 154 580 q 120 561 86 549 q 96 491 97 433 z"},">":{"x_min":0,"x_max":600,"ha":600,"o":"m 119 368 l 119 320 l 421 181 l 119 42 l 119 -6 l 119 -6 l 481 160 l 481 202 l 119 368 z"},"l":{"x_min":0,"x_max":278,"ha":278,"o":"m 88 586 q 96 552 97 510 l 97 69 l 24 31 l 38 17 q 47 24 58 30 q 67 35 78 35 q 110 33 147 -12 l 166 -12 l 255 56 l 244 68 l 218 51 l 218 51 l 173 81 l 173 477 q 173 513 183 552 q 192 591 216 619 l 205 634 q 183 615 163 592 q 144 569 125 546 l 125 546 l 102 595 z"},"8":{"x_min":0,"x_max":500,"ha":500,"o":"m 81 88 l 27 45 l 38 38 q 44 43 53 48 q 61 52 68 52 q 93 51 135 31 q 176 10 198 -12 l 210 -12 q 273 45 426 60 l 426 72 l 414 83 l 414 211 q 422 213 428 216 q 433 219 433 223 q 433 231 426 235 q 418 240 409 243 l 286 300 q 319 313 354 324 q 387 334 419 334 l 419 346 l 403 356 l 403 458 l 449 495 l 449 510 q 436 500 413 499 q 399 500 363 523 q 326 544 300 552 l 284 552 q 242 523 187 505 q 130 487 76 478 l 76 466 l 95 456 l 95 340 l 74 331 l 74 321 l 194 265 q 175 252 135 238 q 95 222 63 222 l 63 210 l 81 201 z m 275 43 l 157 95 l 157 229 l 215 256 l 215 256 l 343 199 l 343 65 l 275 43 z m 327 331 l 271 308 l 271 308 l 171 356 l 171 481 l 233 505 l 233 505 l 327 461 z"},"\\":{"x_min":0,"x_max":278,"ha":278,"o":"m -66 662 l 298 -22 l 344 -22 l -20 662 z"},"e":{"x_min":0,"x_max":333,"ha":333,"o":"m 59 72 l 1 38 l 15 27 q 21 31 32 37 q 43 42 53 42 q 74 41 99 22 q 124 4 141 -12 l 157 -12 l 312 75 l 298 89 l 219 45 l 219 45 l 135 88 l 135 138 l 315 241 l 315 256 l 224 374 l 213 374 q 186 355 134 335 q 82 315 35 314 q 36 297 59 285 z m 135 159 l 135 159 l 135 317 q 152 323 169 330 l 248 225 z"},"b":{"x_min":0,"x_max":444,"ha":444,"o":"m 53 597 q 67 569 68 538 l 68 72 l 6 27 l 20 15 q 27 23 36 29 q 45 34 54 34 q 68 34 93 21 q 116 7 141 -12 l 141 -12 q 190 13 239 32 q 288 51 344 52 q 370 50 395 50 l 395 70 l 373 86 l 373 292 l 438 334 l 425 348 q 416 341 405 333 q 393 324 382 324 q 371 325 347 344 q 323 360 302 375 l 288 375 l 144 285 l 144 285 l 144 514 q 143 589 184 622 l 171 634 q 153 615 133 595 q 113 574 96 552 l 96 552 q 85 582 64 605 z m 144 262 l 230 317 l 230 317 l 297 278 l 297 70 q 260 61 215 42 q 183 69 144 86 z"},"%":{"x_min":0,"x_max":833,"ha":833,"o":"m 39 289 l -14 252 l -8 237 q 1 245 10 251 q 19 256 28 256 q 44 256 70 243 q 95 230 120 214 l 135 214 q 169 239 223 259 q 277 278 338 280 q 337 305 315 314 l 315 467 l 371 510 l 362 523 q 355 518 344 511 q 333 503 321 503 q 308 504 280 525 q 251 544 236 552 l 213 552 q 175 526 121 509 q 67 490 18 490 q 18 477 25 471 q 31 465 39 462 z m 107 486 l 174 503 l 174 503 l 247 460 l 247 287 l 184 264 l 184 264 l 107 305 z m 590 552 l 191 -12 l 235 -12 l 634 552 z m 513 63 l 460 26 l 466 11 q 475 19 484 25 q 493 30 502 30 q 518 30 544 17 q 569 4 594 -12 l 609 -12 q 643 13 697 33 q 751 52 812 54 q 811 79 789 88 l 789 241 l 845 284 l 836 297 q 829 292 818 285 q 807 277 795 277 q 782 278 754 299 q 725 318 710 326 l 687 326 q 649 300 595 283 q 541 264 492 264 q 492 251 499 245 q 505 239 513 236 z m 581 259 l 648 276 l 648 276 l 721 233 l 721 60 l 658 37 l 658 37 l 581 78 z"},"m":{"x_min":0,"x_max":667,"ha":667,"o":"m 155 251 l 250 315 q 296 294 296 248 l 296 66 l 260 41 q 277 29 299 17 q 321 4 339 -12 l 349 -12 l 451 61 l 441 73 l 407 54 l 407 54 l 372 79 l 372 247 l 463 312 l 463 312 l 513 282 l 513 61 q 513 33 532 17 q 548 0 563 -12 l 574 -12 l 667 53 l 653 69 l 653 69 l 626 49 q 611 59 601 70 q 589 81 589 103 l 589 293 l 654 338 l 643 351 q 615 329 593 329 q 579 329 561 345 q 543 358 533 374 l 519 374 l 374 271 l 374 271 q 374 300 369 316 q 365 331 354 339 l 319 374 l 303 374 l 155 275 l 155 275 q 155 297 154 314 q 150 330 136 346 l 104 374 l 87 374 l 8 317 l 15 301 q 21 304 27 307 q 33 310 37 310 q 49 310 64 296 q 78 282 79 257 l 79 80 l 6 31 l 16 17 q 28 24 40 32 q 51 40 59 41 q 68 40 89 22 q 110 4 125 -12 l 134 -12 l 237 56 l 225 70 l 195 55 l 155 82 z"},"#":{"x_min":0,"x_max":444,"ha":444,"o":"m 384 374 q 368 364 350 356 q 331 347 307 347 q 282 346 229 374 l 214 374 q 153 328 78 321 q 55 320 48 318 q 41 316 41 310 q 38 307 68 287 l 68 191 q 56 187 48 181 q 39 175 39 168 q 39 157 56 157 l 180 157 l 35 0 l 48 -12 q 65 2 83 11 q 101 20 120 20 q 173 19 219 -12 l 235 -12 q 257 13 299 30 q 340 47 389 50 q 406 50 406 57 q 405 70 385 79 l 385 190 q 408 195 408 209 q 408 217 394 218 l 260 218 l 396 365 z m 309 48 l 294 48 q 280 62 256 70 q 232 78 207 78 q 177 77 149 66 q 120 55 103 43 l 101 45 l 220 174 l 309 174 z m 144 207 l 144 315 l 161 323 q 178 308 192 301 q 205 292 228 292 q 257 292 284 303 q 310 313 332 325 l 334 323 l 227 207 z"},",":{"x_min":0,"x_max":250,"ha":250,"o":"m 80 -153 q 97 -144 119 -129 q 141 -115 161 -96 q 182 -76 196 -51 q 210 -25 210 6 q 209 47 191 66 q 172 85 155 87 l 146 87 l 39 14 l 50 0 l 83 22 q 108 18 123 3 q 137 -13 138 -42 q 138 -71 119 -97 q 100 -123 71 -140 z"},"n":{"x_min":0,"x_max":500,"ha":500,"o":"m 482 51 l 471 68 l 448 53 q 403 70 403 124 l 403 281 l 478 333 l 466 348 q 456 339 444 332 q 432 323 418 323 q 405 324 387 341 q 369 358 356 374 l 339 374 l 171 254 l 171 254 q 171 298 169 315 q 166 332 160 335 l 125 374 l 106 374 l 14 307 l 29 293 l 53 313 l 53 313 l 95 274 l 95 74 l 18 18 l 34 5 q 56 31 77 32 q 95 31 113 16 q 130 1 142 -12 l 156 -12 l 253 58 l 241 70 l 215 54 l 215 54 l 171 82 l 171 227 l 283 313 l 283 313 l 327 277 l 327 70 q 327 39 344 22 q 358 4 380 -12 l 395 -12 z"},"h":{"x_min":0,"x_max":444,"ha":444,"o":"m 143 251 l 244 312 l 244 312 l 294 282 l 294 52 q 294 39 292 30 q 289 20 284 12 q 275 -3 275 -30 q 274 -62 287 -92 q 297 -111 303 -125 q 308 -139 308 -158 q 308 -172 303 -184 q 296 -198 280 -207 l 294 -220 q 322 -215 346 -195 q 369 -175 370 -144 q 369 -122 358 -106 q 347 -90 333 -76 q 322 -63 310 -49 q 305 -41 302 -32 q 297 -23 297 -13 q 298 8 318 22 q 337 35 355 35 q 380 35 398 28 l 403 41 l 370 67 l 370 282 l 432 321 l 420 336 q 414 331 404 328 q 395 323 385 323 q 382 323 372 331 q 363 337 352 346 q 328 365 314 374 l 302 374 l 143 271 l 143 271 l 143 510 q 143 549 152 572 q 161 594 181 621 l 169 634 q 125 599 97 554 l 97 554 q 90 570 83 585 q 76 601 66 613 l 53 603 q 67 548 67 510 l 67 81 l 2 42 l 15 28 q 26 39 38 40 q 54 39 73 22 q 92 4 104 -12 l 117 -12 l 221 61 l 211 75 l 180 54 l 180 54 l 143 82 z"},"z":{"x_min":0,"x_max":389,"ha":389,"o":"m 71 140 q 78 152 92 158 q 106 162 121 162 l 166 162 l 12 0 l 25 -12 q 56 12 81 22 q 104 30 144 30 q 168 30 188 24 q 208 18 223 9 q 240 1 253 -5 q 267 -11 277 -12 q 292 -11 301 0 q 319 17 336 36 q 353 55 368 64 l 358 75 l 333 58 l 333 58 q 286 92 226 92 q 193 92 163 84 q 133 75 103 64 l 101 66 l 190 162 l 296 162 l 339 219 l 328 230 q 324 224 314 217 q 304 208 284 208 l 233 208 l 369 355 l 360 365 q 335 345 312 336 q 289 326 255 326 q 221 326 187 342 q 152 357 128 374 l 113 374 q 74 328 37 299 l 50 288 q 64 300 75 300 q 91 299 110 282 q 120 276 135 271 q 148 264 169 264 q 234 265 278 285 l 280 283 l 208 208 l 104 208 l 57 154 z"},"B":{"x_min":0,"x_max":778,"ha":778,"o":"m 470 50 l 470 50 q 397 81 318 82 q 245 82 149 41 q 105 20 75 -11 q 44 -42 44 -86 q 45 -161 101 -190 q 155 -218 223 -218 q 282 -217 328 -206 l 318 -187 q 269 -199 218 -200 q 158 -200 112 -175 q 63 -150 62 -87 q 62 -57 81 -36 q 99 -15 125 -3 q 183 20 234 20 q 290 20 331 9 q 371 -3 409 -22 l 439 -22 q 454 -13 471 -1 q 489 11 512 22 q 536 34 570 42 q 603 49 649 49 q 689 49 728 45 l 735 58 q 725 62 717 69 q 709 76 709 88 l 709 265 q 707 309 664 329 q 621 350 573 355 l 573 357 q 628 387 669 432 q 710 477 711 542 q 710 594 677 628 q 643 661 591 662 q 554 661 511 641 q 467 619 427 588 q 387 557 361 528 q 333 497 333 477 l 333 205 q 333 181 327 159 q 320 137 294 127 l 294 106 l 294 106 q 314 114 335 124 q 357 133 375 148 q 394 163 406 184 q 417 205 417 236 l 417 510 q 417 537 434 560 q 450 582 473 597 q 497 613 520 622 q 542 630 556 630 q 601 629 611 600 q 620 570 619 532 q 620 459 594 408 q 566 358 488 340 l 488 340 l 488 477 l 470 477 z m 197 145 q 197 127 187 117 q 177 105 164 101 l 162 78 l 162 78 q 209 95 245 123 q 280 152 281 192 l 281 448 q 281 481 294 495 q 305 510 322 515 l 316 529 q 275 518 238 491 q 220 477 209 459 q 197 441 197 419 l 197 370 q 134 363 111 337 q 88 309 89 253 l 107 253 q 114 285 129 294 q 143 302 177 302 l 197 302 z m 625 67 q 561 61 502 36 l 488 42 l 488 127 q 501 132 518 136 q 534 140 546 140 q 588 140 625 123 z m 625 144 q 588 157 549 158 q 518 157 488 146 l 488 236 q 521 219 559 219 q 593 219 625 234 z m 488 322 l 567 346 q 585 340 605 325 q 624 310 625 288 l 625 252 q 595 238 563 237 q 523 237 488 253 z m 400 644 q 386 633 371 625 q 355 617 334 617 q 322 617 304 625 q 285 631 262 640 q 217 661 163 662 q 111 662 66 628 q 45 612 31 589 q 17 565 17 537 q 17 500 41 472 l 53 481 q 36 502 35 528 q 35 560 56 580 q 75 600 105 600 q 125 600 147 592 q 169 584 190 575 q 213 567 232 562 q 252 555 267 555 q 311 555 349 580 q 386 602 413 634 z"},"K":{"x_min":0,"x_max":778,"ha":778,"o":"m 286 539 q 252 529 216 501 q 199 487 188 466 q 176 445 176 418 l 177 374 l 146 374 q 122 375 100 353 q 77 330 76 271 l 93 271 q 97 285 110 293 q 121 301 149 301 l 176 301 l 176 144 q 175 126 167 116 q 157 104 146 100 l 156 86 q 201 100 230 125 q 259 151 260 191 l 260 478 q 260 497 269 507 q 277 517 289 521 z m 476 211 l 476 389 l 524 421 l 524 421 l 626 316 l 476 211 z m 375 663 q 339 632 292 631 q 268 632 234 647 q 200 661 162 662 q 115 662 67 636 q 44 623 30 603 q 15 582 15 555 q 16 478 95 465 l 95 481 q 70 487 53 504 q 33 521 33 548 q 33 569 48 580 q 62 590 81 590 q 112 589 145 577 q 179 564 218 563 q 270 563 310 589 q 350 614 385 648 z m 458 375 l 458 62 l 458 62 q 389 88 286 88 q 225 88 147 46 q 111 25 86 -8 q 60 -41 60 -85 q 60 -128 79 -154 q 96 -180 125 -195 q 154 -208 189 -213 q 224 -218 257 -218 q 289 -217 331 -211 l 319 -192 q 284 -200 246 -200 q 188 -201 135 -181 q 111 -169 95 -148 q 78 -127 78 -93 q 79 -30 126 -2 q 170 26 228 26 q 261 26 290 19 q 317 11 339 2 q 361 -7 379 -14 q 396 -22 406 -22 q 421 -21 431 -13 l 544 68 l 530 82 l 476 45 l 476 45 l 476 188 l 529 221 l 529 221 q 567 164 595 97 q 622 31 641 -22 l 660 -22 l 764 56 l 753 68 q 746 61 737 56 q 728 50 719 50 q 709 50 701 65 q 692 78 685 95 q 666 141 643 185 q 620 228 583 262 l 709 351 l 576 479 l 576 479 l 476 412 l 476 412 l 476 515 l 458 515 l 458 399 l 400 359 l 400 359 l 400 538 q 400 562 412 579 q 422 596 437 606 q 453 617 468 621 q 482 624 492 624 q 562 623 583 544 l 583 544 l 718 639 l 707 652 l 657 622 l 657 622 q 634 639 607 651 q 580 662 546 662 q 485 660 405 607 q 368 583 343 551 q 316 519 316 484 l 316 189 q 315 152 275 134 l 281 118 l 281 118 q 348 137 375 167 q 400 196 400 264 l 400 336 l 458 375 z"},"R":{"x_min":0,"x_max":778,"ha":778,"o":"m 217 97 q 142 96 84 51 q 23 5 22 -74 q 23 -159 78 -189 q 131 -219 208 -218 q 247 -218 285 -209 l 285 -190 q 254 -199 223 -200 q 194 -200 164 -196 q 132 -192 104 -180 q 76 -168 59 -145 q 40 -123 40 -87 q 41 -16 92 11 q 140 36 203 35 q 259 34 298 17 q 337 -1 360 -22 l 383 -22 l 514 67 l 501 80 l 434 38 q 416 54 394 69 l 394 285 l 475 324 l 475 324 q 495 310 511 281 q 520 267 527 250 q 534 232 540 213 q 565 132 580 60 q 589 27 606 5 q 622 -17 634 -22 l 654 -22 l 762 52 l 750 66 l 713 42 l 713 42 q 683 60 667 103 q 652 145 638 196 q 625 247 599 291 q 573 335 522 354 q 580 380 625 420 q 646 441 660 467 q 672 493 672 527 q 672 554 665 576 q 657 597 645 614 q 634 632 622 644 q 610 656 600 662 l 591 662 l 394 558 l 394 558 l 394 630 q 404 632 405 646 q 403 661 385 662 q 366 661 366 646 q 366 632 376 630 l 376 548 l 301 510 l 301 510 l 301 548 q 300 599 265 630 q 230 661 170 662 q 111 661 76 619 q 41 577 34 519 l 52 516 q 60 546 85 563 q 108 580 139 580 q 182 579 200 556 q 217 533 217 494 l 217 373 q 99 368 98 296 q 98 281 100 271 q 102 261 102 252 l 123 252 q 126 298 180 301 l 217 301 z m 376 527 l 376 527 l 376 76 q 335 93 301 93 l 301 491 z m 394 306 l 394 537 l 490 588 q 512 599 520 600 q 531 600 559 569 q 572 554 581 532 q 590 510 590 481 q 590 447 573 417 q 554 386 501 359 l 394 306 z"},"T":{"x_min":0,"x_max":722,"ha":722,"o":"m 683 645 q 672 630 650 624 q 628 616 609 616 q 522 617 437 639 q 353 661 271 662 q 188 662 107 617 q 69 594 46 561 q 20 527 20 480 q 20 455 36 435 q 50 414 73 410 l 79 428 q 56 433 47 450 q 38 467 38 490 q 38 522 56 543 q 72 564 97 576 q 122 588 149 594 q 177 598 198 598 q 251 597 320 578 q 389 559 438 548 l 258 426 l 269 408 l 269 408 l 342 458 l 342 458 l 342 141 q 342 129 335 122 q 329 113 322 109 l 328 94 q 371 103 399 131 q 425 158 426 207 l 426 519 l 462 542 q 508 531 556 532 l 556 61 q 506 42 453 42 q 334 43 256 116 q 174 187 173 307 q 173 375 207 439 q 241 502 304 534 l 296 549 q 93 462 89 246 q 91 107 189 43 q 283 -22 408 -22 q 605 -20 696 142 l 684 154 q 643 96 574 67 l 574 67 l 574 532 q 663 557 696 638 z"},"P":{"x_min":0,"x_max":722,"ha":722,"o":"m 363 209 q 407 229 454 229 q 506 228 553 207 l 553 53 l 512 38 q 479 65 443 85 q 406 105 363 111 z m 363 424 l 363 424 q 386 412 411 408 q 436 403 460 403 q 509 403 553 422 l 553 226 q 510 246 464 247 q 412 247 363 228 z m 553 442 q 505 420 451 421 q 406 422 363 442 l 363 538 l 477 597 l 477 597 l 553 544 z m 276 515 l 276 515 l 276 538 q 275 590 237 626 q 200 661 144 662 q 80 661 45 620 q 9 580 6 521 l 24 521 q 33 551 49 571 q 65 590 110 590 q 143 590 167 567 q 191 544 192 506 l 192 373 q 139 373 106 354 q 72 334 72 289 q 72 262 79 238 l 96 238 q 100 267 115 284 q 130 301 157 301 l 192 301 l 192 104 q 134 90 91 52 q 48 14 31 -45 l 43 -49 q 91 39 192 39 l 192 -122 q 193 -170 141 -205 l 148 -214 l 264 -145 l 264 -145 l 362 -219 l 362 -219 l 362 14 l 362 14 l 433 -22 l 449 -22 q 474 1 520 22 q 565 43 632 44 q 645 44 657 43 q 669 41 681 39 l 681 62 l 637 84 l 637 546 l 711 597 l 698 612 q 691 608 683 603 q 674 597 665 597 q 649 597 636 609 l 568 662 l 558 662 q 465 608 363 562 l 363 562 l 363 662 l 344 662 l 344 551 z m 344 527 l 344 -177 l 344 -177 l 276 -129 l 276 493 l 344 527 z"},"|":{"x_min":0,"x_max":222,"ha":222,"o":"m 88 -250 l 134 -250 l 134 750 l 88 750 z"},"t":{"x_min":0,"x_max":278,"ha":278,"o":"m 235 322 l 262 387 l 253 394 q 235 374 211 374 l 170 374 l 170 559 l 170 559 l 94 512 l 94 374 l 46 374 l 19 309 l 31 304 q 37 316 46 320 q 54 322 63 322 l 94 322 l 94 81 l 19 32 l 30 19 q 50 35 69 36 q 85 35 108 20 q 130 4 148 -12 l 160 -12 l 263 66 l 251 78 l 214 52 l 214 52 l 170 82 l 170 322 z"},"M":{"x_min":0,"x_max":1000,"ha":1000,"o":"m 969 628 l 927 601 l 927 601 l 845 662 l 835 662 l 692 579 l 692 579 l 692 633 q 695 642 698 650 q 697 662 683 662 q 668 662 668 650 q 671 642 674 633 l 674 566 l 612 529 l 612 529 l 612 576 q 612 608 593 628 q 574 647 545 662 l 531 662 l 341 569 q 254 528 255 440 l 255 373 l 208 373 q 179 373 158 354 q 135 334 135 289 q 135 262 142 238 l 167 238 q 167 266 181 283 q 193 300 220 301 l 255 301 l 255 137 q 254 122 234 116 l 243 100 l 243 100 q 340 125 339 206 l 339 502 q 339 531 350 545 q 360 559 378 566 l 398 574 l 398 128 q 397 85 375 69 q 351 52 317 52 q 278 53 238 67 q 218 73 197 78 q 176 82 153 82 q 90 82 49 44 q 6 6 5 -68 q 6 -143 66 -180 q 123 -218 201 -218 q 241 -218 276 -213 q 310 -209 330 -199 l 317 -183 q 281 -199 206 -200 q 144 -200 86 -169 q 59 -153 42 -128 q 23 -104 23 -70 q 21 6 94 8 q 116 8 137 3 q 158 -2 178 -8 q 220 -21 270 -22 q 413 -21 416 112 l 416 301 l 528 301 l 528 86 l 424 13 l 437 0 q 448 9 464 17 q 479 24 490 24 q 523 23 549 9 q 574 -6 597 -22 l 613 -22 l 744 68 l 732 81 l 692 54 l 692 54 l 692 301 l 810 301 l 810 80 q 810 55 817 42 q 822 29 829 21 l 859 -13 q 868 -22 878 -22 q 886 -21 896 -14 q 904 -7 908 -4 l 984 51 l 976 65 l 945 43 l 945 43 q 925 58 911 72 q 894 87 894 106 l 894 556 l 982 615 z m 416 581 l 458 600 l 458 600 q 489 586 509 572 q 528 558 528 534 l 528 373 l 416 373 z m 612 505 l 674 542 l 674 542 l 674 49 l 674 49 l 612 80 z m 692 556 l 755 592 l 755 592 l 810 555 l 810 373 l 692 373 z"},"g":{"x_min":0,"x_max":444,"ha":444,"o":"m 293 56 l 293 56 q 294 25 306 8 q 317 -10 333 -23 q 349 -36 361 -49 q 372 -63 373 -87 q 373 -125 319 -154 l 265 -180 l 265 -180 q 241 -159 214 -145 q 186 -132 151 -132 q 100 -132 64 -150 l 59 -146 z m 144 302 l 204 317 l 294 278 l 294 81 l 256 50 l 256 50 l 144 89 z m 29 27 q 36 33 45 38 q 53 41 60 41 q 71 41 85 35 q 99 29 111 22 l 185 -13 l 7 -170 l 22 -182 q 43 -166 69 -165 q 109 -165 137 -186 q 165 -208 188 -237 l 199 -237 l 345 -165 q 386 -145 408 -117 q 429 -90 429 -50 q 428 -10 410 15 q 392 39 370 50 l 370 287 l 425 324 l 413 339 q 407 334 398 329 q 389 323 376 323 q 370 323 359 331 q 347 337 333 346 q 305 366 292 374 l 274 374 q 260 359 234 349 q 222 345 207 340 q 192 336 176 331 q 110 318 45 316 q 45 308 52 298 q 59 288 68 284 l 68 76 l 14 36 z"},"j":{"x_min":0,"x_max":278,"ha":278,"o":"m 231 351 q 225 346 215 339 q 204 331 195 331 q 183 332 164 349 q 144 364 132 374 l 123 374 l 21 302 l 36 290 l 66 309 l 66 309 l 96 283 l 96 50 q 96 33 105 21 q 112 8 121 -2 q 130 -12 138 -24 q 145 -37 145 -58 q 145 -82 135 -98 q 126 -115 112 -130 q 100 -144 90 -160 q 78 -176 78 -198 q 78 -211 83 -227 l 101 -227 q 100 -222 100 -217 q 100 -186 118 -165 q 135 -145 157 -129 q 182 -110 201 -87 q 218 -64 219 -27 q 219 -3 207 20 q 193 42 172 52 l 172 281 l 244 336 z m 45 496 l 59 484 l 87 506 l 87 506 l 134 464 l 147 464 l 233 537 l 222 550 l 194 529 l 194 529 l 146 568 l 134 568 z"},"i":{"x_min":0,"x_max":278,"ha":278,"o":"m 17 306 l 32 294 l 62 313 l 62 313 l 92 287 l 92 48 q 92 28 108 13 q 123 -2 134 -12 l 158 -12 l 254 58 l 244 71 l 210 49 q 197 54 184 68 q 168 82 168 101 l 168 285 l 240 340 l 227 355 q 221 350 211 343 q 200 335 191 335 q 179 336 160 353 q 140 368 128 378 l 119 378 z m 37 496 l 51 484 l 79 506 l 79 506 l 126 464 l 139 464 l 225 537 l 214 550 l 186 529 l 186 529 l 138 568 l 126 568 z"},"y":{"x_min":0,"x_max":444,"ha":444,"o":"m 420 345 q 415 340 407 334 q 398 327 387 327 q 381 327 375 335 q 368 341 360 349 q 344 368 330 374 l 310 374 l 141 259 l 141 259 l 141 314 q 141 343 131 356 q 120 369 105 374 l 86 374 l 5 319 l 16 306 l 39 319 l 65 289 l 65 101 q 65 10 175 -1 l 175 -3 q 137 -8 105 -27 q 90 -36 81 -51 q 70 -67 70 -89 q 71 -121 94 -136 q 116 -153 146 -153 q 173 -152 198 -146 q 222 -141 245 -135 q 268 -128 290 -123 q 311 -118 331 -118 q 365 -119 366 -146 q 365 -168 346 -182 q 326 -196 297 -205 q 234 -220 194 -220 q 155 -219 118 -211 l 118 -227 q 152 -238 191 -238 q 218 -238 253 -233 q 287 -229 319 -217 q 351 -205 373 -183 q 393 -160 394 -126 q 393 -88 370 -72 q 345 -56 311 -56 q 287 -56 263 -61 q 238 -66 215 -73 q 192 -79 171 -84 q 150 -90 130 -91 q 114 -90 106 -82 q 98 -75 98 -67 q 99 -33 142 -23 q 162 -17 186 -15 q 198 -13 212 -12 q 224 -10 236 -9 q 262 -5 286 2 q 310 9 330 21 q 350 34 361 56 q 372 77 372 109 l 372 289 l 431 330 z m 256 314 l 296 288 l 296 73 q 297 13 218 14 q 139 13 141 73 l 141 236 l 256 314 z"},"@":{"x_min":0,"x_max":800,"ha":800,"o":"m 510 390 q 499 284 462 230 q 426 175 392 175 q 365 175 346 194 q 326 213 326 258 q 328 352 379 403 q 427 453 467 454 q 510 453 510 390 z m 525 443 l 525 443 q 517 463 503 479 q 489 495 454 496 q 405 495 369 469 q 331 443 307 403 q 295 385 286 365 q 277 344 271 325 q 258 285 258 258 q 258 221 269 197 q 279 173 294 159 q 309 146 326 140 q 342 133 354 133 q 398 134 429 163 q 444 175 455 187 q 464 198 469 204 l 471 204 q 471 192 491 165 q 510 136 559 134 q 604 134 639 158 q 673 180 697 215 q 744 290 744 370 q 742 499 651 579 q 559 661 418 662 q 267 661 164 564 q 58 468 56 305 q 55 198 146 92 q 191 43 262 12 q 332 -21 428 -22 q 486 -21 538 -4 q 589 12 637 34 l 624 59 l 624 59 q 583 40 538 27 q 492 12 427 12 q 291 14 213 101 q 133 185 132 294 q 133 461 216 549 q 297 635 418 636 q 558 633 634 546 q 710 461 710 369 q 710 300 675 237 q 659 207 633 188 q 607 168 574 168 q 552 168 544 180 q 536 190 536 200 q 536 217 538 226 l 603 482 l 536 482 z"},".":{"x_min":0,"x_max":250,"ha":250,"o":"m 24 10 l 58 31 l 58 31 l 118 -12 l 139 -12 l 239 66 l 228 77 l 198 56 l 198 56 l 136 100 l 114 100 l 11 23 z"},"p":{"x_min":0,"x_max":444,"ha":444,"o":"m 25 -221 l 37 -237 l 37 -237 l 155 -169 l 155 44 q 179 39 200 24 q 220 8 234 -12 l 247 -12 q 310 54 390 55 q 409 55 410 62 q 409 76 382 83 l 382 296 l 436 333 l 425 346 l 396 328 l 394 328 l 316 374 l 300 374 l 155 284 l 155 284 q 155 311 147 333 q 138 354 102 374 l 88 374 l 5 310 l 17 300 l 39 314 q 77 303 79 271 l 79 79 q 38 59 7 32 l 17 21 q 32 29 47 38 q 62 46 79 51 l 79 -188 z m 244 316 l 244 316 l 306 286 l 306 52 l 296 46 q 273 73 234 87 q 195 100 155 100 l 155 262 z"},"X":{"x_min":0,"x_max":722,"ha":722,"o":"m 367 297 l 367 297 l 539 14 q 549 -1 559 -11 q 569 -22 582 -22 q 595 -21 607 -14 q 618 -7 625 -2 l 707 56 l 696 71 q 672 51 646 50 q 629 50 614 69 q 598 85 584 107 l 466 304 l 600 304 l 664 406 l 652 414 l 631 382 l 417 382 l 505 562 l 505 562 q 522 551 538 547 q 554 543 573 543 q 619 544 652 573 q 684 601 703 640 l 690 653 q 661 631 625 631 q 581 631 550 662 l 534 662 l 406 407 l 406 407 l 321 555 q 291 610 259 637 q 227 662 182 662 q 129 661 90 629 q 51 595 41 543 l 55 543 q 95 583 141 582 q 178 582 201 565 q 223 548 240 518 l 321 382 l 170 382 l 108 262 l 128 262 l 150 304 l 351 304 l 234 75 q 221 86 201 94 q 180 102 150 102 q 94 102 55 68 q 15 34 7 -22 l 27 -22 q 37 -8 62 0 q 85 8 110 8 q 133 8 157 1 q 180 -7 197 -22 l 211 -22 z"},"*":{"x_min":0,"x_max":444,"ha":444,"o":"m 176 42 q 149 50 125 68 q 100 86 99 117 q 99 144 114 160 q 128 176 148 186 l 175 200 l 211 164 l 223 177 l 120 279 q 176 283 225 310 l 225 310 l 269 276 l 269 101 z m 411 346 q 402 341 388 331 q 374 320 363 320 q 344 320 325 339 q 305 357 298 374 l 282 374 q 260 349 216 327 q 170 305 130 301 l 128 303 q 145 314 146 336 q 146 354 133 365 q 119 374 102 374 q 59 373 58 332 q 58 317 79 295 l 162 213 q 118 197 73 164 q 52 147 38 126 q 23 104 23 78 q 24 44 51 21 q 75 -3 104 -12 l 121 -12 l 269 79 l 269 79 q 269 50 275 36 q 281 22 292 13 l 320 -12 l 331 -12 l 422 54 l 412 66 l 388 50 l 388 50 l 345 86 l 345 280 l 420 332 z m 311 456 l 311 456 l 357 498 l 357 509 l 311 552 l 311 552 l 265 509 l 265 498 z m 139 456 l 139 456 l 185 498 l 185 509 l 139 552 l 139 552 l 93 509 l 93 498 z"},"Y":{"x_min":0,"x_max":722,"ha":722,"o":"m 32 514 q 32 546 60 562 q 87 578 124 578 q 162 578 185 559 q 208 540 208 501 l 208 373 l 161 373 q 132 373 111 354 q 88 334 88 289 q 88 262 95 238 l 120 238 q 120 266 134 283 q 146 300 173 301 l 208 301 l 208 114 q 209 53 256 23 q 302 -8 361 -14 l 361 -16 q 338 -21 314 -28 q 290 -35 270 -47 q 250 -58 238 -79 q 224 -100 224 -133 q 225 -175 256 -193 q 286 -212 324 -212 q 359 -211 397 -197 q 433 -184 469 -167 q 505 -150 537 -136 q 568 -123 589 -123 q 611 -122 629 -129 q 645 -137 646 -159 q 646 -172 636 -180 q 626 -189 609 -193 q 575 -200 546 -200 l 559 -218 q 598 -219 638 -205 q 657 -196 669 -180 q 680 -165 680 -139 q 679 -97 647 -74 q 615 -51 576 -51 q 538 -51 502 -64 q 464 -78 428 -97 q 393 -114 361 -127 q 328 -139 300 -140 q 283 -140 268 -135 q 252 -131 252 -112 q 253 -73 314 -56 q 342 -47 377 -40 q 412 -33 448 -24 q 486 -13 521 0 q 555 13 582 34 q 609 55 626 86 q 642 116 642 159 l 642 551 l 707 593 l 696 606 q 687 599 668 598 q 663 598 650 608 q 636 618 619 630 q 602 643 588 652 q 574 662 566 662 q 554 662 540 654 q 526 646 514 639 l 375 564 l 375 564 l 375 662 l 357 662 l 357 552 l 292 519 l 292 519 q 292 582 258 622 q 223 661 160 662 q 95 661 55 621 q 15 581 14 514 z m 356 530 l 356 530 l 356 7 q 327 15 310 37 q 292 57 292 85 l 292 498 z m 374 185 q 420 204 469 204 q 515 203 558 188 l 558 100 q 558 72 541 54 q 523 35 495 24 q 435 3 374 4 z m 374 391 q 413 375 459 375 q 513 375 558 392 l 558 207 q 539 213 517 218 q 505 220 493 221 q 479 222 464 222 q 427 223 374 206 z m 478 597 l 558 551 l 558 412 q 511 393 467 393 q 419 394 374 410 l 374 542 l 478 597 z"},"c":{"x_min":0,"x_max":333,"ha":333,"o":"m 63 80 l 8 40 l 19 27 q 27 35 36 40 q 45 45 54 45 q 70 44 101 25 q 132 6 150 -12 l 171 -12 l 316 80 l 304 93 l 229 47 l 229 47 q 186 73 139 90 l 139 311 l 163 322 q 175 299 193 285 q 211 270 235 270 q 261 270 285 283 q 308 295 322 312 l 322 327 q 284 331 264 343 q 244 356 229 374 l 215 374 q 181 347 131 330 q 81 311 42 311 l 42 293 l 63 282 z"},"!":{"x_min":0,"x_max":278,"ha":278,"o":"m 37 524 l 71 547 l 92 535 l 136 204 l 148 204 l 192 532 q 210 535 229 545 q 249 555 250 570 q 250 575 247 578 q 243 580 231 580 q 197 579 177 595 l 149 617 l 136 617 l 23 534 z m 40 8 l 74 29 l 74 29 l 134 -14 l 155 -14 l 255 64 l 244 75 l 214 54 l 214 54 l 152 98 l 130 98 l 27 21 z"},"/":{"x_min":0,"x_max":278,"ha":278,"o":"m -6 -22 l 41 -22 l 284 662 l 237 662 z"},"[":{"x_min":0,"x_max":556,"ha":556,"o":"m 120 79 l 41 25 l 52 14 q 60 21 76 29 q 90 36 100 36 q 115 35 137 19 q 159 3 175 -12 l 191 -12 l 294 63 l 284 75 l 248 51 l 248 51 l 196 88 l 196 322 l 367 322 l 367 79 l 288 25 l 299 14 q 307 21 323 29 q 337 36 347 36 q 362 35 384 19 q 406 3 422 -12 l 438 -12 l 541 63 l 531 75 l 495 51 l 495 51 l 443 88 l 443 322 l 514 322 l 541 382 l 528 390 q 518 374 499 374 l 443 374 l 443 556 l 447 558 q 459 543 475 537 q 491 529 509 529 q 535 529 552 548 q 569 567 573 597 l 563 602 q 556 592 536 591 q 525 591 514 603 q 502 614 494 627 l 480 627 q 457 598 424 580 q 390 561 356 549 q 366 491 367 433 l 367 374 l 196 374 l 196 556 l 200 558 q 212 543 228 537 q 244 529 262 529 q 288 529 305 548 q 322 567 326 597 l 316 602 q 309 592 289 591 q 278 591 267 603 q 255 614 247 627 l 233 627 q 210 598 177 580 q 143 561 109 549 q 119 491 120 433 l 120 374 l 67 374 l 42 316 l 53 311 q 59 318 68 321 q 76 322 85 322 l 120 322 z"},"6":{"x_min":0,"x_max":500,"ha":500,"o":"m 43 36 q 55 49 72 50 q 93 49 139 26 q 184 4 203 -12 l 216 -12 q 251 15 308 35 q 364 56 420 57 q 428 57 434 60 q 439 63 439 69 q 439 75 432 81 q 426 86 419 87 l 419 273 l 469 307 l 459 319 q 453 314 444 309 q 435 304 426 304 q 418 304 401 314 q 384 323 363 334 l 318 358 l 318 358 l 165 275 l 165 275 l 165 470 l 221 492 l 221 492 q 239 477 264 466 q 289 454 326 454 q 362 454 386 466 q 409 478 435 500 l 433 515 q 411 506 388 506 q 356 507 330 524 q 302 540 289 552 l 272 552 q 255 538 229 523 q 203 508 174 494 q 145 482 121 474 q 97 464 84 464 q 64 464 64 452 q 64 447 73 444 q 81 441 89 440 l 89 90 l 28 49 z m 343 65 l 280 43 l 280 43 l 165 95 l 165 252 l 247 296 l 247 296 l 343 260 z"},"r":{"x_min":0,"x_max":389,"ha":389,"o":"m 243 49 l 183 86 l 183 257 l 227 300 l 227 300 q 251 268 291 268 q 317 269 341 288 q 352 296 360 304 q 366 312 366 316 q 366 332 340 332 q 324 332 310 348 q 296 361 288 374 l 274 374 l 183 282 q 183 294 180 315 q 176 334 161 347 l 127 374 l 114 374 l 25 309 l 41 293 q 47 299 54 305 q 60 310 67 310 q 73 310 79 306 q 83 302 86 297 l 107 276 l 107 86 l 29 28 l 43 15 q 55 25 66 35 q 76 45 91 45 q 108 44 129 28 q 150 10 170 -12 l 189 -12 l 300 64 l 286 76 l 243 49 z"},"2":{"x_min":0,"x_max":500,"ha":500,"o":"m 56 -4 q 68 25 93 38 q 118 50 147 50 q 178 50 205 44 q 232 37 254 26 q 277 17 293 6 q 310 -4 320 -12 l 336 -12 l 434 87 l 421 98 l 381 61 l 381 61 q 310 103 227 104 q 132 105 69 38 l 67 38 q 70 70 87 95 q 104 119 128 140 q 180 179 246 217 q 312 255 361 306 q 411 357 412 440 q 420 443 426 446 q 431 449 431 454 q 430 464 404 464 q 362 465 307 493 q 250 520 214 552 l 204 552 q 179 514 145 484 q 127 469 106 458 q 85 446 59 439 q 53 437 53 431 q 53 425 58 424 q 82 419 107 419 q 205 418 272 488 q 297 474 324 463 q 323 396 281 340 q 238 284 182 230 q 126 178 83 122 q 39 64 38 -4 z"},"{":{"x_min":0,"x_max":333,"ha":333,"o":"m 126 -57 q 126 -143 162 -171 q 179 -186 202 -190 q 225 -196 253 -196 l 253 -184 q 227 -172 215 -143 q 202 -113 202 -62 l 202 105 q 202 132 200 153 q 197 174 187 189 q 168 220 106 232 l 106 234 q 168 247 187 278 q 203 309 202 361 l 202 528 q 201 630 253 650 l 253 662 q 225 662 202 658 q 179 653 162 638 q 145 624 136 596 q 126 568 126 523 l 126 346 q 126 299 113 273 q 99 246 57 233 q 99 220 113 194 q 126 168 126 120 z"},"9":{"x_min":0,"x_max":500,"ha":500,"o":"m 454 504 q 442 491 425 490 q 405 491 360 515 q 338 526 321 536 q 302 546 294 552 l 281 552 q 247 527 191 506 q 133 483 77 483 q 70 483 65 480 q 58 477 58 471 q 58 466 65 461 q 72 455 78 453 l 78 267 l 28 233 l 38 221 q 45 227 54 232 q 63 236 71 236 q 79 235 97 227 q 114 217 134 206 l 179 182 l 179 182 l 332 265 l 332 265 l 332 70 l 276 48 l 276 48 q 260 64 234 75 q 209 86 171 86 q 136 86 113 75 q 89 63 62 40 l 64 25 q 86 33 109 34 q 141 33 169 17 q 195 0 208 -12 l 225 -12 q 264 20 325 47 q 354 61 378 68 q 401 76 413 76 q 432 76 433 88 q 433 94 425 97 q 417 100 408 100 l 408 450 l 469 491 z m 154 475 l 217 497 l 217 497 l 332 445 l 332 288 l 250 244 l 250 244 l 154 280 z"}," ":{"x_min":0,"x_max":250,"ha":250,"o":""},"I":{"x_min":0,"x_max":722,"ha":722,"o":"m 520 574 q 493 564 451 533 q 431 518 418 500 q 403 481 403 460 l 403 369 l 362 369 q 324 369 309 340 q 295 310 295 252 l 313 252 q 320 284 335 293 q 349 301 383 301 l 403 301 l 403 130 q 402 102 375 88 l 375 75 q 432 84 460 109 q 487 134 487 194 l 487 495 q 488 523 502 539 q 515 554 526 559 z m 229 -200 q 151 -195 92 -152 q 31 -110 30 -32 q 30 15 58 52 q 85 89 135 90 q 180 89 207 73 q 234 56 260 34 q 286 12 325 -4 q 363 -21 430 -22 q 456 -22 491 -15 q 525 -9 559 10 q 593 29 616 66 q 638 102 638 160 l 638 586 q 638 608 646 625 q 653 641 661 644 l 661 662 q 638 661 599 629 q 581 613 568 588 q 554 563 554 527 l 554 124 q 554 56 536 26 q 516 -4 468 -4 q 427 -3 399 21 q 384 33 371 47 q 358 61 343 74 q 317 105 282 129 q 247 151 192 152 q 114 150 64 94 q 13 38 12 -40 q 12 -85 35 -118 q 56 -152 91 -174 q 164 -218 241 -218 z m 524 662 q 507 647 486 636 q 463 625 439 625 q 402 626 362 645 q 322 661 272 662 q 223 662 172 631 q 149 616 133 595 q 117 574 117 547 q 117 474 190 466 l 190 484 q 164 488 150 505 q 135 520 135 543 q 135 573 157 586 q 176 598 203 598 q 247 597 292 575 q 339 554 385 553 q 432 554 471 587 q 510 618 536 653 z"},"H":{"x_min":0,"x_max":778,"ha":778,"o":"m 588 166 q 542 176 480 177 q 455 177 427 173 q 398 169 377 164 l 377 301 l 588 301 z m 377 488 q 398 484 427 479 q 455 473 480 473 q 542 474 588 486 l 588 373 l 377 373 z m 359 620 l 359 46 l 359 46 q 325 60 290 71 q 256 82 218 83 q 186 83 149 75 q 112 66 80 48 q 48 30 27 1 q 5 -27 5 -68 q 7 -157 78 -188 q 112 -204 151 -211 q 189 -218 227 -218 l 227 -200 q 198 -200 164 -194 q 129 -189 97 -176 q 65 -163 45 -139 q 23 -117 23 -81 q 23 -33 57 -11 q 88 11 133 11 q 190 10 225 -1 q 260 -13 279 -22 l 302 -22 l 428 52 l 421 71 l 421 71 l 377 44 l 377 44 l 377 144 q 397 149 425 154 q 453 159 478 159 q 539 157 588 146 l 588 69 l 503 10 l 516 -4 q 527 5 537 13 q 548 21 560 22 q 581 21 601 4 q 621 -13 632 -22 l 657 -22 q 675 -5 692 2 l 770 44 l 758 57 l 727 41 l 727 41 l 672 74 l 672 553 l 759 610 l 752 627 q 730 610 704 609 q 694 609 685 618 q 676 625 666 632 l 623 662 l 623 662 l 498 590 l 502 572 l 502 572 l 539 593 l 539 593 l 588 563 l 588 502 q 539 492 478 491 q 453 491 425 496 q 397 501 377 504 l 377 635 q 378 646 386 650 l 376 662 q 362 647 347 639 q 331 631 309 631 q 270 632 233 647 q 198 661 153 662 q 100 661 55 627 q 34 611 20 588 q 6 564 6 537 q 6 514 22 496 q 36 478 56 468 l 64 481 q 46 495 35 507 q 24 518 24 542 q 24 565 41 580 q 58 594 86 594 q 117 593 153 578 q 189 564 230 563 q 304 564 359 620 z m 325 558 q 291 548 255 520 q 238 506 227 485 q 215 464 215 437 l 215 373 l 168 373 q 139 373 118 354 q 95 334 95 289 q 95 262 102 238 l 127 238 q 127 266 141 283 q 153 300 180 301 l 215 301 l 215 163 q 214 145 206 135 q 196 123 185 119 l 185 105 q 211 113 232 120 q 253 126 268 135 q 299 151 299 178 l 299 497 q 299 516 308 526 q 316 536 328 540 z"},"4":{"x_min":0,"x_max":500,"ha":500,"o":"m 23 183 l 269 183 l 269 79 l 184 17 l 198 6 q 209 17 222 26 q 234 34 246 34 q 263 33 279 18 q 295 2 304 -12 l 319 -12 l 431 66 l 420 84 l 420 84 l 376 58 l 376 58 l 345 83 l 345 183 l 456 183 l 456 201 l 345 201 l 345 463 l 404 515 l 393 527 l 367 506 q 341 517 302 552 l 285 552 l 23 241 z m 243 474 l 243 474 l 269 457 l 269 201 l 99 201 l 99 300 z"},"~":{"x_min":0,"x_max":600,"ha":600,"o":"m 495 247 l 495 247 q 479 220 458 199 q 437 176 407 175 q 389 175 364 187 q 338 197 309 209 q 282 223 253 233 q 223 243 194 243 q 145 242 115 216 q 85 190 69 157 l 105 115 l 105 115 q 117 143 137 165 q 156 186 189 187 q 223 187 251 177 q 278 167 302 153 q 327 141 352 131 q 377 119 406 119 q 452 119 481 147 q 496 160 509 175 q 521 190 531 205 z"},"D":{"x_min":0,"x_max":778,"ha":778,"o":"m 382 93 q 344 101 309 102 q 263 102 213 94 q 163 85 118 63 q 74 42 46 5 q 17 -32 17 -88 q 17 -125 40 -150 q 61 -175 93 -190 q 163 -218 227 -218 q 289 -217 354 -203 l 344 -185 q 313 -189 287 -194 q 260 -199 226 -200 q 164 -200 102 -175 q 73 -162 55 -138 q 35 -114 35 -80 q 35 -46 53 -22 q 70 2 96 16 q 151 44 211 44 q 286 43 341 21 q 396 -2 420 -22 l 445 -22 q 462 -11 481 4 q 501 18 526 32 q 539 39 554 45 q 569 51 586 55 q 619 63 662 63 q 691 62 719 60 l 719 79 q 705 82 700 93 l 700 521 q 700 566 682 594 q 664 622 633 637 q 603 652 566 658 q 529 662 491 662 q 430 661 347 646 q 264 630 188 629 q 116 629 99 662 l 76 662 q 96 603 148 583 q 198 562 255 563 q 318 564 382 576 z m 340 545 q 325 541 306 532 q 287 523 270 510 q 253 497 242 476 q 230 454 230 424 l 231 376 q 186 374 162 361 q 138 347 138 298 q 138 274 142 255 l 155 255 q 159 282 170 292 q 181 301 208 301 l 230 301 l 230 174 q 229 156 221 146 q 211 134 200 130 l 200 116 q 259 123 287 152 q 314 180 314 221 l 314 484 q 314 503 324 514 q 332 524 345 532 z m 616 81 q 559 73 508 45 l 508 45 q 458 76 400 88 l 400 225 q 428 234 456 242 q 483 248 512 248 q 568 247 616 218 z m 400 413 l 400 413 q 452 387 509 386 q 565 386 616 407 l 616 238 l 616 238 q 566 266 508 266 q 481 266 454 260 q 427 252 400 243 z m 400 580 q 426 580 451 586 q 463 588 475 589 q 487 590 499 590 q 564 590 591 570 q 616 548 616 496 l 616 427 q 571 404 520 404 q 456 404 400 433 z"},"^":{"x_min":0,"x_max":600,"ha":600,"o":"m 153 175 l 300 470 l 300 470 l 447 175 l 509 175 l 326 540 l 274 540 l 91 175 z"},"0":{"x_min":0,"x_max":500,"ha":500,"o":"m 34 29 q 41 35 54 43 q 67 50 74 50 q 99 49 135 27 q 170 5 197 -12 l 225 -12 q 252 11 312 33 q 341 44 367 50 q 392 56 407 56 q 419 56 426 59 q 432 61 432 65 q 431 79 412 80 l 412 461 l 465 494 l 460 513 l 460 513 l 410 483 l 410 483 l 293 552 l 281 552 q 259 528 203 503 q 147 476 63 475 l 63 463 l 86 444 l 86 83 l 28 46 z m 277 41 l 162 88 l 162 472 l 222 492 l 222 492 l 336 444 l 336 62 l 277 41 z"},"F":{"x_min":0,"x_max":833,"ha":833,"o":"m 181 475 q 165 487 156 505 q 147 523 147 543 q 147 569 169 584 q 188 598 212 598 q 237 598 258 593 q 278 588 297 582 q 316 577 338 571 q 359 564 386 564 q 430 565 473 591 q 516 616 543 650 l 535 662 q 515 647 496 640 q 477 632 451 632 q 415 633 384 647 q 368 653 347 658 q 325 662 293 662 q 232 662 182 635 q 159 621 145 600 q 129 578 129 548 q 129 496 170 464 z m 410 444 q 410 476 421 494 q 431 512 440 514 l 436 531 l 436 531 q 398 517 364 489 q 348 475 337 460 q 326 445 326 430 l 326 374 q 287 369 255 349 q 240 339 230 324 q 219 308 219 284 q 219 270 222 259 l 238 259 q 244 297 284 296 l 326 296 l 326 194 q 326 172 323 158 q 320 145 315 139 q 310 133 305 130 q 299 127 293 126 l 296 102 q 344 114 377 139 q 409 163 410 203 z m 587 581 q 599 573 616 563 q 632 554 646 550 l 646 368 l 564 368 l 564 569 z m 563 296 l 619 296 q 633 297 646 314 l 646 -182 q 638 -182 632 -186 q 624 -190 624 -202 q 624 -220 643 -220 q 663 -221 664 -192 l 664 329 l 688 352 l 688 368 l 664 368 l 664 548 q 719 555 757 585 q 794 615 822 652 l 811 662 q 794 648 773 638 q 751 626 725 626 q 689 627 670 662 l 657 662 q 627 626 577 597 q 526 567 479 545 l 479 67 q 479 44 472 30 q 463 14 445 14 q 412 15 348 50 q 333 58 316 65 q 298 72 278 78 q 239 89 192 89 q 122 88 71 45 q 18 1 17 -72 q 17 -113 37 -140 q 56 -168 86 -186 q 150 -218 222 -218 q 298 -217 370 -200 l 365 -183 q 296 -199 220 -200 q 163 -200 102 -173 q 73 -158 55 -136 q 35 -113 35 -82 q 35 -29 66 -4 q 95 21 145 21 q 189 20 244 0 q 299 -20 361 -22 q 436 -21 498 13 q 527 30 546 54 q 563 77 563 106 z"},"`":{"x_min":0,"x_max":278,"ha":278,"o":"m 42 539 l 184 422 l 200 422 l 152 557 l 42 557 z"},"k":{"x_min":0,"x_max":444,"ha":444,"o":"m 69 595 q 80 563 81 514 l 81 76 l 20 35 l 34 22 q 42 30 51 36 q 59 41 66 41 q 71 42 78 36 q 84 30 92 21 q 109 1 126 -12 l 141 -12 l 237 57 l 226 68 l 201 54 l 157 86 l 157 134 l 230 174 l 230 174 q 244 160 257 132 q 269 103 281 72 q 293 41 305 18 q 315 -5 327 -12 l 343 -12 l 429 47 l 418 59 q 413 55 405 50 q 396 44 388 44 q 382 44 377 54 q 371 62 365 73 q 341 131 295 209 l 394 266 l 394 271 l 304 374 l 288 374 l 157 293 l 157 293 l 157 492 q 157 530 171 565 q 184 600 200 624 l 191 633 q 170 613 148 592 q 125 570 108 544 l 108 544 q 100 573 81 597 z m 249 326 l 249 326 l 318 245 l 157 155 l 157 155 l 157 269 z"},"u":{"x_min":0,"x_max":500,"ha":500,"o":"m 18 310 l 31 294 l 31 294 l 62 316 l 62 316 l 96 281 l 96 78 l 18 23 l 28 10 q 57 35 77 36 q 94 35 114 21 q 134 5 154 -12 l 170 -12 l 324 92 l 324 92 q 324 64 328 50 q 331 36 338 27 l 374 -12 l 393 -12 l 479 52 l 469 63 l 447 52 l 404 94 l 404 283 l 475 333 l 465 348 q 456 341 443 333 q 429 323 418 323 q 404 324 386 341 q 367 357 353 373 l 338 373 l 251 309 l 258 292 l 258 292 l 284 308 l 284 308 l 323 276 l 323 117 l 224 50 l 224 50 l 172 83 l 172 292 q 172 313 169 324 q 166 334 158 341 l 127 374 l 111 374 z"},"]":{"x_min":0,"x_max":556,"ha":556,"o":"m 120 79 l 41 25 l 52 14 q 60 21 76 29 q 90 36 100 36 q 115 35 137 19 q 159 3 175 -12 l 191 -12 l 294 63 l 284 75 l 248 51 l 248 51 l 196 88 l 196 322 l 367 322 l 367 81 l 292 32 l 303 19 q 323 35 342 36 q 358 35 381 20 q 403 4 421 -12 l 433 -12 l 536 66 l 524 78 l 487 52 l 487 52 l 443 82 l 443 322 l 508 322 l 535 387 l 526 394 q 508 374 484 374 l 443 374 l 443 559 l 443 559 l 367 512 l 367 374 l 196 374 l 196 556 l 200 558 q 212 543 228 537 q 244 529 262 529 q 288 529 305 548 q 322 567 326 597 l 316 602 q 309 592 289 591 q 278 591 267 603 q 255 614 247 627 l 233 627 q 210 598 177 580 q 143 561 109 549 q 119 491 120 433 l 120 374 l 67 374 l 42 316 l 53 311 q 59 318 68 321 q 76 322 85 322 l 120 322 z"},"U":{"x_min":0,"x_max":778,"ha":778,"o":"m 216 95 q 138 86 81 37 q 20 -13 19 -94 q 20 -158 64 -188 q 107 -218 166 -218 q 199 -218 230 -210 l 230 -193 q 200 -199 170 -200 q 117 -200 79 -177 q 38 -153 37 -97 q 38 -33 83 -4 q 126 23 185 23 q 233 22 268 6 q 304 -10 318 -22 l 348 -22 l 580 120 l 580 120 l 580 59 q 581 33 598 11 q 615 -12 631 -22 l 650 -22 l 756 49 l 745 64 l 712 43 q 683 54 664 79 l 664 558 l 752 616 l 741 630 q 732 622 722 616 q 712 607 698 607 q 677 608 655 627 q 632 645 619 662 l 606 662 l 485 575 l 494 560 l 528 582 q 548 564 580 551 l 580 454 q 538 439 498 439 q 469 439 442 444 q 413 448 387 460 l 387 662 l 369 662 l 369 62 q 336 84 300 93 l 300 530 q 299 592 262 627 q 223 662 163 662 q 100 661 63 614 q 25 567 20 505 l 36 505 q 49 536 73 558 q 98 580 131 580 q 166 580 191 561 q 215 542 216 501 l 216 368 q 181 368 143 355 q 125 348 114 335 q 101 321 101 297 q 101 289 106 274 q 109 259 111 252 l 130 252 q 136 272 147 283 q 157 294 182 294 l 216 294 z m 411 39 l 387 54 l 387 241 q 431 260 480 260 q 530 260 580 238 l 580 141 z m 387 257 l 387 442 q 433 421 484 421 q 531 421 580 435 l 580 259 q 558 267 537 273 q 515 278 494 278 q 438 279 387 257 z"},"o":{"x_min":0,"x_max":444,"ha":444,"o":"m 422 344 q 414 336 401 329 q 388 320 377 320 q 362 321 334 340 q 307 358 288 374 l 270 374 q 229 344 162 328 q 96 311 47 311 q 42 310 42 306 q 42 301 53 293 q 62 285 69 282 l 69 74 l 9 34 l 24 22 q 34 29 42 35 q 49 40 61 41 q 74 40 101 24 q 126 6 150 -12 l 171 -12 q 190 8 244 29 q 298 50 374 51 q 397 51 398 60 q 398 68 390 74 q 382 80 372 83 l 372 287 l 434 330 z m 202 318 l 296 271 l 296 61 q 267 56 237 43 l 145 90 l 145 301 l 202 318 z"},"N":{"x_min":0,"x_max":833,"ha":833,"o":"m 252 77 q 170 77 96 30 q 61 8 39 -27 q 15 -61 15 -105 q 16 -168 56 -193 q 94 -218 152 -218 q 190 -217 233 -206 l 226 -189 q 188 -199 151 -200 q 99 -200 67 -178 q 33 -156 33 -102 q 33 -73 47 -51 q 60 -30 81 -16 q 125 13 177 13 q 221 12 251 0 q 280 -12 290 -22 l 322 -22 l 475 83 l 462 96 l 383 42 l 383 42 q 332 76 270 77 l 270 218 q 283 221 295 224 q 307 226 319 227 q 331 229 343 229 q 355 229 367 229 q 423 230 502 201 q 535 145 578 78 q 621 12 675 -37 l 692 -37 l 692 560 q 782 562 818 645 l 806 654 q 778 632 749 632 q 733 632 719 639 q 703 646 696 662 l 678 662 l 523 547 l 535 532 l 604 581 q 621 572 639 567 q 656 560 674 560 l 674 438 q 649 423 620 419 q 590 414 560 414 q 539 414 509 422 q 479 428 459 439 q 443 466 417 503 q 390 540 357 576 q 324 613 283 638 q 241 661 193 662 q 139 661 96 629 q 51 597 32 546 l 45 541 q 67 566 90 578 q 112 590 144 590 q 206 588 252 551 l 252 373 l 211 373 q 168 373 140 341 q 111 308 111 245 l 129 245 q 132 271 147 281 q 162 290 185 291 q 219 294 252 278 z m 270 538 l 270 538 q 396 395 485 228 q 433 247 378 247 q 324 247 270 238 z m 674 90 l 672 90 q 568 250 468 412 l 470 414 q 520 395 577 396 q 628 396 674 418 z"},"+":{"x_min":0,"x_max":500,"ha":500,"o":"m 18 310 l 31 294 l 31 294 l 62 316 l 62 316 l 96 281 l 96 78 l 18 23 l 28 10 q 57 35 77 36 q 94 35 114 21 q 134 5 154 -12 l 170 -12 l 324 92 l 324 92 q 324 64 328 50 q 331 36 338 27 l 374 -12 l 393 -12 l 479 52 l 469 63 l 447 52 l 404 94 l 404 283 l 475 333 l 465 348 q 456 341 443 333 q 429 323 418 323 q 404 324 386 341 q 367 357 353 373 l 338 373 l 251 309 l 258 292 l 258 292 l 284 308 l 284 308 l 323 276 l 323 117 l 224 50 l 224 50 l 172 83 l 172 292 q 172 313 169 324 q 166 334 158 341 l 127 374 l 111 374 z m 338 456 l 338 456 l 384 498 l 384 509 l 338 552 l 338 552 l 292 509 l 292 498 z m 166 456 l 166 456 l 212 498 l 212 509 l 166 552 l 166 552 l 120 509 l 120 498 z"},"G":{"x_min":0,"x_max":722,"ha":722,"o":"m 415 363 q 447 379 478 379 q 529 378 558 350 q 586 320 596 277 q 581 271 559 266 q 535 260 519 260 q 466 259 415 280 z m 280 646 l 280 646 q 169 599 92 510 q 13 421 12 295 q 15 152 131 67 q 243 -20 387 -22 q 488 -22 589 35 q 637 63 668 108 q 697 151 698 211 q 696 296 634 347 q 572 396 491 397 q 468 397 448 392 l 446 394 l 689 652 l 679 662 q 655 647 627 636 q 598 624 568 624 q 547 624 521 633 q 495 642 483 662 l 465 662 l 188 475 l 192 456 l 192 456 l 259 498 l 259 498 l 259 127 q 260 92 229 74 l 234 58 l 234 58 q 285 75 314 106 q 343 135 343 166 l 343 281 l 397 343 l 397 343 l 397 -4 q 113 0 118 291 q 117 392 151 487 q 185 580 280 627 z m 397 481 l 397 374 l 345 314 l 343 314 l 343 558 l 394 591 l 394 591 q 434 562 482 562 q 520 562 553 572 q 585 582 607 594 l 609 592 l 415 391 l 415 391 l 415 481 z m 415 109 q 454 124 492 124 q 537 124 578 108 q 536 -3 415 -4 z m 415 257 q 461 242 507 242 q 554 241 598 258 q 602 236 602 212 q 601 168 584 127 q 566 133 546 138 q 525 142 505 142 q 483 142 460 141 q 438 138 415 132 z"},"q":{"x_min":0,"x_max":444,"ha":444,"o":"m 420 343 q 412 335 401 328 q 389 319 381 319 q 368 320 340 341 q 311 361 294 374 l 271 374 q 236 348 171 333 q 106 316 35 317 q 35 298 65 285 l 65 86 l 1 39 l 13 25 q 33 44 51 44 q 63 44 78 36 q 92 27 106 16 q 121 5 134 -3 q 146 -11 154 -12 q 165 -11 186 2 l 292 58 l 292 58 l 292 -187 l 229 -221 l 235 -237 l 235 -237 l 368 -167 l 368 282 l 432 329 z m 141 303 q 173 312 204 322 q 224 313 246 300 q 269 288 292 278 l 292 82 l 227 45 l 227 45 l 141 88 z"},"d":{"x_min":0,"x_max":444,"ha":444,"o":"m 435 328 l 422 341 q 415 333 404 327 q 393 320 383 320 q 377 320 364 331 q 352 341 342 349 l 84 587 l 84 587 l 32 534 l 218 364 q 200 351 179 343 q 157 334 134 328 q 112 324 89 321 q 66 318 42 318 l 42 300 l 65 287 l 65 83 l 0 35 l 15 24 q 32 41 53 42 q 71 42 84 36 q 97 28 107 19 q 118 10 125 2 q 132 -7 138 -12 l 158 -12 q 192 12 249 32 q 307 52 364 53 q 380 51 396 50 l 396 68 l 373 83 l 373 280 z m 141 308 q 189 319 230 348 l 230 348 l 297 289 l 297 66 l 233 44 l 233 44 l 141 90 z"},"1":{"x_min":0,"x_max":500,"ha":500,"o":"m 106 439 l 184 492 q 199 488 212 474 q 225 460 225 436 l 225 87 l 97 2 l 108 -12 q 125 -1 150 17 q 174 36 190 37 q 215 36 239 18 q 263 0 280 -12 l 299 -12 l 443 86 l 432 98 l 361 53 l 361 53 l 301 85 l 301 439 q 301 472 297 492 q 292 513 284 524 q 268 546 249 552 l 238 552 l 102 456 l 106 439 z"},"5":{"x_min":0,"x_max":500,"ha":500,"o":"m 277 45 l 277 45 q 234 90 151 92 q 106 91 74 81 q 40 70 40 58 q 39 50 58 50 q 126 50 157 33 q 187 16 206 -12 l 221 -12 q 249 15 300 36 q 351 57 391 58 q 397 58 402 61 q 407 64 407 68 q 407 75 400 81 q 394 87 384 90 l 384 257 q 402 268 418 282 q 432 294 433 302 q 432 307 427 307 q 423 306 413 301 q 402 293 394 293 q 386 293 365 303 q 345 313 321 325 l 258 361 l 258 361 l 100 292 l 100 292 l 123 462 l 306 462 q 327 462 344 475 q 359 486 370 502 q 381 518 387 531 q 391 544 391 546 q 391 551 387 552 q 382 551 374 542 q 365 531 357 530 l 115 530 l 80 279 l 89 269 l 182 308 l 182 308 l 308 252 l 308 61 z"}}}
